<svg width="23" height="23" viewBox="0 0 23 23" fill="none" xmlns="http://www.w3.org/2000/svg">
<path d="M18.9521 5.9442L11.329 8.68388L11.3124 8.68042L11.2976 8.68348L3.67565 5.9442L11.3139 3.19905L18.9521 5.9442ZM19.6963 5.9442L19.6959 5.94453L19.6963 5.9442Z" stroke="#FFA800"/>
<path d="M11.0611 9.13822V19.8528L3.18311 16.5192V6.30199L11.0611 9.13822ZM11.5611 20.216V8.9613V20.216Z" stroke="#FFA800"/>
<path d="M11.3152 8.9613L11.3162 8.962L11.3152 8.9613ZM11.3152 8.9613L11.3123 8.95922L11.3152 8.9613ZM11.5669 19.8633V9.13822L19.4449 6.30199V16.2991L11.5669 19.8633Z" stroke="#FFA800"/>
<path d="M13.8116 3.56787L5.57764 6.8837V10.9969C5.5778 11.0534 5.59511 11.1086 5.62727 11.1552C5.65943 11.2017 5.70495 11.2374 5.7578 11.2575L8.08464 12.143C8.11761 12.1488 8.15133 12.1488 8.1843 12.143C8.2404 12.1419 8.29497 12.1246 8.34147 12.0932C8.37911 12.0669 8.4099 12.0319 8.43124 11.9912C8.45258 11.9505 8.46386 11.9053 8.46414 11.8594V7.94937L17.093 4.7447L13.8116 3.56787Z" fill="#FFA800"/>
<path d="M8.21492 7.84583L5.81142 6.98716L5.57758 6.90283C5.5718 6.93065 5.5718 6.95935 5.57758 6.98716V10.9968C5.57775 11.0534 5.59505 11.1086 5.62722 11.1551C5.65938 11.2017 5.70489 11.2374 5.75775 11.2575L8.08458 12.143C8.11755 12.1488 8.15128 12.1488 8.18425 12.143C8.24034 12.1419 8.29492 12.1246 8.34142 12.0932C8.37906 12.0668 8.40984 12.0318 8.43118 11.9912C8.45253 11.9505 8.46381 11.9053 8.46408 11.8593V7.934L8.21492 7.84583Z" fill="#FFA800"/>
</svg>
