<svg width="30" height="30" viewBox="0 0 30 30" fill="none" xmlns="http://www.w3.org/2000/svg">
<path d="M17.9375 3.75C19.15 3.76249 20.1375 4.38679 20.7125 5.51054C20.8609 5.80709 21.068 6.2402 21.2848 6.69709L21.5465 7.24955L21.675 7.52081L21.8 7.79551C21.85 7.88291 21.9375 7.94534 22.05 7.94534C25.05 7.94534 27.5 10.3926 27.5 13.3893V20.806C27.5 23.8027 25.05 26.25 22.05 26.25H7.95C4.9375 26.25 2.5 23.8027 2.5 20.806V13.3893C2.5 10.3926 4.9375 7.94534 7.95 7.94534C8.05 7.94534 8.15 7.89539 8.1875 7.79551L8.2625 7.64567C8.6125 6.90899 9.0375 6.00999 9.2875 5.51054C9.8625 4.38679 10.8375 3.76249 12.05 3.75H17.9375ZM15 11.7536C13.6875 11.7536 12.45 12.2655 11.5125 13.202C10.5875 14.1385 10.075 15.3621 10.0875 16.6607C10.0875 17.9717 10.6 19.1953 11.525 20.1318C12.4625 21.0558 13.6875 21.5677 15 21.5677C16.35 21.5677 17.575 21.0183 18.4625 20.1318C19.35 19.2453 19.9 18.0216 19.9125 16.6607C19.9125 15.3621 19.4 14.126 18.475 13.1895C17.55 12.2655 16.3125 11.7536 15 11.7536ZM15 13.6265C15.8125 13.6265 16.575 13.9387 17.15 14.513C17.725 15.0874 18.0375 15.8491 18.0375 16.6607C18.025 18.3338 16.675 19.6948 15 19.6948C14.1875 19.6948 13.425 19.3826 12.85 18.8083C12.275 18.2339 11.9625 17.4723 11.9625 16.6607V16.6482C11.95 15.8615 12.2625 15.0999 12.8375 14.5255C13.425 13.9387 14.1875 13.6265 15 13.6265ZM22.0125 11.4539C21.3875 11.4539 20.8875 11.9659 20.8875 12.5902C20.8875 13.2145 21.3875 13.7139 22.0125 13.7139C22.6375 13.7139 23.15 13.2145 23.15 12.5902C23.15 11.9659 22.6375 11.4539 22.0125 11.4539Z" fill="#686868"/>
</svg>
