<svg width="224" height="170" viewBox="0 0 224 170" fill="none" xmlns="http://www.w3.org/2000/svg">
<g clip-path="url(#clip0_1775_45395)">
<path d="M89.41 35.2541H88.5948V12.924C88.5948 11.2268 88.2605 9.54624 87.611 7.97823C86.9616 6.41021 86.0096 4.98548 84.8095 3.78537C83.6094 2.58526 82.1846 1.63328 80.6166 0.983788C79.0486 0.334293 77.368 1.43801e-06 75.6708 0H28.3615C24.9339 -6.5343e-06 21.6466 1.36162 19.2229 3.78534C16.7991 6.20906 15.4375 9.49633 15.4375 12.924V135.428C15.4375 137.126 15.7718 138.806 16.4213 140.374C17.0708 141.942 18.0227 143.367 19.2229 144.567C20.423 145.767 21.8477 146.719 23.4157 147.369C24.9837 148.018 26.6643 148.352 28.3615 148.352H75.6707C79.0984 148.352 82.3857 146.991 84.8094 144.567C87.2332 142.143 88.5948 138.856 88.5948 135.428V51.149H89.41V35.2541Z" fill="#3F3D56"/>
<path d="M76.192 3.3623H70.0166C70.3006 4.05856 70.409 4.81397 70.3323 5.562C70.2555 6.31002 69.996 7.02769 69.5766 7.65179C69.1572 8.2759 68.5907 8.78727 67.9271 9.14088C67.2635 9.49448 66.5231 9.67946 65.7711 9.67952H38.6683C37.9163 9.67946 37.1759 9.49448 36.5123 9.14088C35.8487 8.78728 35.2822 8.2759 34.8628 7.6518C34.4434 7.02769 34.1839 6.31002 34.1071 5.562C34.0304 4.81398 34.1388 4.05856 34.4228 3.3623H28.6549C27.3875 3.3623 26.1324 3.61195 24.9615 4.09698C23.7905 4.58201 22.7265 5.29294 21.8303 6.18917C20.9341 7.08539 20.2231 8.14937 19.7381 9.32034C19.2531 10.4913 19.0034 11.7464 19.0034 13.0138V135.338C19.0034 136.606 19.2531 137.861 19.7381 139.032C20.2231 140.203 20.9341 141.267 21.8303 142.163C22.7265 143.059 23.7905 143.77 24.9615 144.255C26.1324 144.74 27.3875 144.99 28.6549 144.99H76.192C77.4595 144.99 78.7145 144.74 79.8855 144.255C81.0565 143.77 82.1204 143.059 83.0167 142.163C83.9129 141.267 84.6238 140.203 85.1089 139.032C85.5939 137.861 85.8435 136.606 85.8435 135.338V13.0138C85.8435 11.7464 85.5939 10.4913 85.1089 9.32034C84.6238 8.14937 83.9129 7.08539 83.0167 6.18917C82.1204 5.29294 81.0565 4.58201 79.8855 4.09698C78.7145 3.61195 77.4595 3.3623 76.192 3.3623Z" fill="white"/>
<path d="M104.573 148.374H0.273752C0.201148 148.374 0.131518 148.345 0.0801799 148.293C0.0288414 148.242 0 148.173 0 148.1C0 148.027 0.0288414 147.958 0.0801799 147.906C0.131518 147.855 0.201148 147.826 0.273752 147.826H104.573C104.646 147.826 104.715 147.855 104.767 147.906C104.818 147.958 104.847 148.027 104.847 148.1C104.847 148.173 104.818 148.242 104.767 148.293C104.715 148.345 104.646 148.374 104.573 148.374Z" fill="#CBCBCB"/>
<path d="M52.4235 94.6306C65.1908 94.6306 75.5408 84.2807 75.5408 71.5133C75.5408 58.746 65.1908 48.396 52.4235 48.396C39.6561 48.396 29.3062 58.746 29.3062 71.5133C29.3062 84.2807 39.6561 94.6306 52.4235 94.6306Z" fill="#E75C4A"/>
<path d="M50.1326 80.3318C49.6126 80.3327 49.1063 80.1645 48.6902 79.8525L48.6644 79.8331L43.2315 75.6771C42.9799 75.4842 42.7688 75.2436 42.6101 74.9691C42.4515 74.6946 42.3484 74.3916 42.3069 74.0772C42.2654 73.7629 42.2862 73.4435 42.3681 73.1372C42.4501 72.8309 42.5915 72.5438 42.7844 72.2921C42.9773 72.0405 43.2179 71.8294 43.4924 71.6707C43.7669 71.5121 44.07 71.4091 44.3843 71.3675C44.6986 71.326 45.0181 71.3468 45.3243 71.4287C45.6306 71.5107 45.9178 71.6521 46.1694 71.845L49.6884 74.5435L58.0039 63.695C58.1967 63.4435 58.4372 63.2324 58.7116 63.0738C58.986 62.9153 59.2889 62.8123 59.6031 62.7708C59.9173 62.7293 60.2366 62.7501 60.5428 62.832C60.8489 62.9139 61.136 63.0553 61.3875 63.2481L61.3882 63.2486L61.3366 63.3203L61.3896 63.2486C61.897 63.6386 62.229 64.2139 62.3127 64.8484C62.3964 65.4829 62.2249 66.1247 61.836 66.6329L52.0551 79.3874C51.8288 79.6813 51.5379 79.9191 51.2049 80.0824C50.8718 80.2457 50.5057 80.3301 50.1348 80.329L50.1326 80.3318Z" fill="white"/>
<path d="M190.051 150.646C190.332 150.191 190.663 149.769 191.038 149.388C191.193 149.228 191.356 149.076 191.524 148.93C192.546 148.02 193.792 147.399 195.134 147.13C196.476 146.862 197.865 146.955 199.158 147.401C200.452 147.848 201.603 148.63 202.494 149.669C203.385 150.708 203.983 151.965 204.227 153.312C205.356 149.136 202.417 145.024 199.462 141.864C196.505 138.706 193.126 135.242 193.143 130.915C193.151 128.507 194.329 126.359 196.108 124.766C196.163 124.718 196.217 124.67 196.273 124.623C198.423 122.781 201.188 121.817 204.017 121.925C209.273 122.206 213.862 125.738 217.049 129.928C222.179 136.67 224.427 146.134 220.836 153.808C217.677 160.558 210.94 164.566 204.064 167.788C203.104 168.238 202.146 168.675 201.19 169.098C201.183 169.099 201.176 169.104 201.17 169.106C201.124 169.126 201.078 169.146 201.035 169.167C200.837 169.254 200.64 169.341 200.444 169.427L200.535 169.486L200.818 169.669C200.72 169.61 200.623 169.552 200.525 169.493C200.495 169.475 200.465 169.458 200.436 169.44C197.059 167.414 193.635 165.27 191.302 162.107C188.882 158.823 187.909 154.118 190.051 150.646Z" fill="#F1F1F1"/>
<path d="M212.581 143.018C213.329 144.719 213.825 146.52 214.053 148.364C214.232 150.009 214.165 151.671 213.853 153.295C213.182 156.634 211.72 159.762 209.589 162.418C207.981 164.433 206.124 166.238 204.064 167.789C203.104 168.239 202.146 168.675 201.189 169.098C201.183 169.1 201.176 169.104 201.17 169.106C201.124 169.126 201.078 169.146 201.034 169.167C200.837 169.254 200.64 169.341 200.444 169.427L200.535 169.487L200.817 169.67C200.719 169.61 200.622 169.553 200.524 169.493C200.495 169.475 200.464 169.458 200.435 169.44C201.179 166.841 201.288 164.101 200.754 161.451C200.22 158.8 199.059 156.316 197.367 154.207C195.667 152.124 193.498 150.473 191.038 149.388C191.193 149.228 191.356 149.077 191.524 148.93C192.471 149.365 193.378 149.883 194.235 150.478C197.297 152.595 199.597 155.641 200.793 159.167C201.862 162.365 201.995 165.802 201.178 169.073C201.348 168.962 201.518 168.849 201.683 168.736C204.829 166.614 207.728 164.066 209.912 160.942C211.796 158.301 213.001 155.238 213.422 152.022C213.841 148.508 212.962 145.053 211.393 141.919C209.661 138.565 207.479 135.464 204.906 132.701C202.323 129.863 199.401 127.351 196.208 125.222C196.136 125.173 196.085 125.099 196.066 125.014C196.048 124.929 196.062 124.841 196.107 124.766C196.142 124.699 196.201 124.647 196.273 124.624C196.31 124.614 196.348 124.613 196.385 124.621C196.422 124.628 196.456 124.644 196.487 124.667C196.881 124.93 197.272 125.195 197.658 125.469C200.874 127.746 203.795 130.414 206.354 133.412C208.826 136.301 211.076 139.511 212.581 143.018Z" fill="white"/>
<path d="M143.731 10.734C146.443 10.734 148.641 8.53596 148.641 5.82452C148.641 3.11309 146.443 0.915039 143.731 0.915039C141.02 0.915039 138.822 3.11309 138.822 5.82452C138.822 8.53596 141.02 10.734 143.731 10.734Z" fill="#F1F1F1"/>
<path d="M204.778 76.4347C206.431 76.4347 207.771 75.0946 207.771 73.4415C207.771 71.7884 206.431 70.4482 204.778 70.4482C203.125 70.4482 201.785 71.7884 201.785 73.4415C201.785 75.0946 203.125 76.4347 204.778 76.4347Z" fill="#F1F1F1"/>
<path d="M117.177 84.6471C118.83 84.6471 120.171 83.307 120.171 81.6539C120.171 80.0008 118.83 78.6606 117.177 78.6606C115.524 78.6606 114.184 80.0008 114.184 81.6539C114.184 83.307 115.524 84.6471 117.177 84.6471Z" fill="#F1F1F1"/>
<path d="M118.868 170H223.167C223.24 170 223.309 169.971 223.361 169.92C223.412 169.869 223.441 169.799 223.441 169.726C223.441 169.654 223.412 169.584 223.361 169.533C223.309 169.481 223.24 169.453 223.167 169.453H118.868C118.795 169.453 118.725 169.481 118.674 169.533C118.623 169.584 118.594 169.654 118.594 169.726C118.594 169.799 118.623 169.869 118.674 169.92C118.725 169.971 118.795 170 118.868 170Z" fill="#CBCBCB"/>
<path d="M211.657 26.4543C211.794 25.4819 211.569 24.4931 211.026 23.6752C210.483 22.8573 209.658 22.2672 208.709 22.0166C207.759 21.766 206.751 21.8724 205.875 22.3156C204.998 22.7588 204.315 23.508 203.954 24.4213L195.491 34.1243L197.974 41.0603L206.486 29.7227C207.041 29.9007 207.629 29.9546 208.208 29.8809C208.786 29.8071 209.341 29.6074 209.834 29.2957C210.327 28.9841 210.746 28.5682 211.061 28.0772C211.376 27.5863 211.579 27.0323 211.657 26.4543Z" fill="#FFB7B7"/>
<path d="M176.573 64.2082L204.668 34.2244L200.879 28.1997L165.641 58.0014L176.573 64.2082Z" fill="#3F3D56"/>
<path d="M170.303 45.9904C175.746 45.9904 180.158 41.5782 180.158 36.1353C180.158 30.6925 175.746 26.2803 170.303 26.2803C164.861 26.2803 160.448 30.6925 160.448 36.1353C160.448 41.5782 164.861 45.9904 170.303 45.9904Z" fill="#2F2E41"/>
<path d="M171.095 30.5679C173.216 28.4174 175.782 26.7579 178.613 25.7063C180.431 25.033 182.409 24.617 184.309 24.9994C186.209 25.3817 188.005 26.6961 188.536 28.5603C188.969 30.0846 188.521 31.7259 187.849 33.1608C187.176 34.5958 186.278 35.9264 185.734 37.4149C185.179 38.9337 185.012 40.567 185.249 42.1667C185.485 43.7663 186.117 45.2816 187.088 46.575C188.058 47.8684 189.336 48.8989 190.806 49.573C192.276 50.2471 193.891 50.5435 195.504 50.4352C193.637 50.6855 191.916 51.5628 190.092 52.0297C188.267 52.4967 186.113 52.465 184.757 51.1578C183.323 49.7746 183.294 47.5259 183.363 45.5342C183.466 42.5736 183.57 39.613 183.673 36.6523C183.725 35.1425 183.77 33.5842 183.226 32.175C182.681 30.7657 181.387 29.5317 179.876 29.5446C178.731 29.5543 177.718 30.2479 176.8 30.9319C175.882 31.616 174.91 32.3458 173.769 32.4475C172.629 32.5493 171.327 31.7053 171.412 30.5634L171.095 30.5679Z" fill="#2F2E41"/>
<path d="M132.873 102.308C131.927 102.57 130.917 102.477 130.035 102.045C129.153 101.613 128.46 100.873 128.088 99.9644C127.715 99.0559 127.689 98.0423 128.014 97.1156C128.339 96.189 128.992 95.4138 129.851 94.9368L138.365 85.2778L145.566 86.8336L135.438 96.7538C135.687 97.2812 135.817 97.8568 135.819 98.4401C135.822 99.0233 135.696 99.6 135.452 100.129C135.207 100.659 134.85 101.128 134.404 101.505C133.958 101.881 133.436 102.155 132.873 102.308Z" fill="#FFB7B7"/>
<path d="M160.883 67.7274L139.664 94.3635L133.195 91.3938L158.137 52.5635L160.883 67.7274Z" fill="#3F3D56"/>
<path d="M143.952 148.158L138.895 148.078L139.503 165.315H143.951L143.952 148.158Z" fill="#FFB7B7"/>
<path d="M145.086 163.863L136.325 163.863H136.325C134.844 163.863 133.424 164.451 132.377 165.498C131.331 166.545 130.742 167.965 130.742 169.446V169.627L145.085 169.627L145.086 163.863Z" fill="#2F2E41"/>
<path d="M177.437 143.586L171.912 147.133L182.963 160.427L186.706 158.024L177.437 143.586Z" fill="#FFB7B7"/>
<path d="M186.876 156.189L179.504 160.922L179.504 160.922C178.258 161.722 177.381 162.984 177.066 164.431C176.75 165.877 177.022 167.39 177.822 168.636L177.92 168.789L189.99 161.04L186.876 156.189Z" fill="#2F2E41"/>
<path d="M179.405 90.9514C179.405 90.9514 167.13 50.1823 163.185 49.6313C159.24 49.0804 152.884 60.0922 152.884 60.0922C144.644 70.6066 136.146 104.665 136.146 104.665C136.146 104.665 150.312 105.551 160.667 111.061C171.022 116.57 183.243 110.782 183.243 110.782L179.405 90.9514Z" fill="#3F3D56"/>
<path opacity="0.1" d="M179.405 90.9512C179.405 90.9512 167.13 50.1821 163.185 49.6311C159.24 49.0802 154.499 60.2038 154.499 60.2038C150.392 77.1764 136.146 104.665 136.146 104.665C136.146 104.665 150.312 105.551 160.667 111.06C171.022 116.57 183.243 110.781 183.243 110.781L179.405 90.9512Z" fill="black"/>
<path d="M169.334 78.7537V99.2399L171.745 128.916L183.79 151.363L178.041 155.47L161.616 134.117L155.119 112.915L144.917 159.85L137.252 159.302L142.575 94.2284L152.677 75.9116L169.334 78.7537Z" fill="#2F2E41"/>
<path d="M156.958 58.9389C153.125 62.7714 156.684 66.8777 156.684 66.8777L152.304 76.7328L169.551 81.3866L175.578 54.4553L171.471 50.0753C163.259 49.8015 163.254 49.6313 163.254 49.6313C161.815 51.0395 156.958 58.9389 156.958 58.9389Z" fill="#E75C4A"/>
<path d="M176.272 51.665C175.489 51.0868 174.598 50.6698 173.653 50.438C172.707 50.2063 171.725 50.1645 170.763 50.3151C169.801 50.4656 168.879 50.8056 168.049 51.3151C167.22 51.8247 166.499 52.4938 165.93 53.2837C161.595 59.3205 157.586 69.0685 163.109 81.226C171.979 100.747 179.697 110.74 182.835 110.739C182.972 110.741 183.108 110.719 183.238 110.676C185.169 110.021 187.962 106.753 188.467 103.873C188.648 102.842 188.605 101.406 187.372 100.42C183.831 97.5877 177.474 88.7687 175.491 77.1609C174.395 70.747 176.52 64.9045 178.496 61.1328C179.331 59.5722 179.575 57.763 179.184 56.037C178.793 54.311 177.793 52.7837 176.367 51.7351L176.272 51.665Z" fill="#3F3D56"/>
<path d="M170.81 45.0222C174.326 43.1005 175.618 38.6927 173.696 35.1771C171.774 31.6616 167.366 30.3695 163.851 32.2913C160.335 34.2131 159.043 38.6209 160.965 42.1365C162.887 45.652 167.295 46.944 170.81 45.0222Z" fill="#FFB7B7"/>
<path d="M157.128 38.1081H167.603L167.711 36.6042L168.248 38.1081H169.861L170.074 35.1274L171.138 38.1081H174.259V37.9605C174.257 35.8853 173.431 33.8958 171.964 32.4284C170.497 30.961 168.507 30.1356 166.432 30.1333H164.955C162.88 30.1356 160.89 30.961 159.423 32.4284C157.956 33.8958 157.13 35.8853 157.128 37.9605V38.1081Z" fill="#2F2E41"/>
<path d="M172.677 43.5139L177.147 42.0633V31.2075H168.703L168.912 31.4162C171.821 34.321 175.055 44.6267 172.677 43.5139Z" fill="#2F2E41"/>
</g>
<defs>
<clipPath id="clip0_1775_45395">
<rect width="223.441" height="170" fill="white"/>
</clipPath>
</defs>
</svg>
