<svg width="18" height="18" viewBox="0 0 18 18" fill="none" xmlns="http://www.w3.org/2000/svg">
<path d="M9.00002 6.75375C9.79567 6.75375 10.5587 7.06982 11.1213 7.63243C11.6839 8.19504 12 8.9581 12 9.75375C12 10.5494 11.6839 11.3125 11.1213 11.8751C10.5587 12.4377 9.79567 12.7537 9.00002 12.7537C8.20437 12.7537 7.44131 12.4377 6.8787 11.8751C6.31609 11.3125 6.00002 10.5494 6.00002 9.75375C6.00002 8.9581 6.31609 8.19504 6.8787 7.63243C7.44131 7.06982 8.20437 6.75375 9.00002 6.75375ZM9.00002 7.87875C8.50274 7.87875 8.02582 8.07629 7.67419 8.42792C7.32256 8.77956 7.12502 9.25647 7.12502 9.75375C7.12502 10.251 7.32256 10.7279 7.67419 11.0796C8.02582 11.4312 8.50274 11.6287 9.00002 11.6287C9.4973 11.6287 9.97421 11.4312 10.3258 11.0796C10.6775 10.7279 10.875 10.251 10.875 9.75375C10.875 9.25647 10.6775 8.77956 10.3258 8.42792C9.97421 8.07629 9.4973 7.87875 9.00002 7.87875ZM9.00002 4.125C12.4598 4.125 15.447 6.4875 16.2758 9.798C16.3121 9.94271 16.2894 10.0959 16.2127 10.2239C16.1361 10.3519 16.0117 10.4442 15.867 10.4805C15.7223 10.5168 15.5691 10.4941 15.4411 10.4175C15.3131 10.3408 15.2208 10.2165 15.1845 10.0717C14.8373 8.69435 14.0401 7.47229 12.9195 6.59935C11.7989 5.7264 10.419 5.25253 8.99847 5.25288C7.57798 5.25322 6.19825 5.72776 5.07806 6.60125C3.95788 7.47474 3.16135 8.69718 2.81477 10.0747C2.79689 10.1465 2.76507 10.2139 2.72111 10.2733C2.67716 10.3327 2.62193 10.3829 2.55859 10.421C2.49525 10.459 2.42503 10.4842 2.35195 10.4952C2.27887 10.5061 2.20434 10.5025 2.13264 10.4846C2.06094 10.4667 1.99346 10.4349 1.93406 10.391C1.87466 10.347 1.82449 10.2918 1.78643 10.2284C1.74837 10.1651 1.72316 10.0949 1.71224 10.0218C1.70131 9.94872 1.70489 9.8742 1.72277 9.8025C2.1295 8.18047 3.06651 6.74083 4.38497 5.7122C5.70343 4.68357 7.32777 4.12493 9.00002 4.125Z" fill="#FFBE02"/>
</svg>
