<svg width="20" height="20" viewBox="0 0 20 20" fill="none" xmlns="http://www.w3.org/2000/svg">
<path d="M13.3335 3.33325H15.0002C15.4422 3.33325 15.8661 3.50885 16.1787 3.82141C16.4912 4.13397 16.6668 4.55789 16.6668 4.99992V16.6666C16.6668 17.1086 16.4912 17.5325 16.1787 17.8451C15.8661 18.1577 15.4422 18.3333 15.0002 18.3333H5.00016C4.55814 18.3333 4.13421 18.1577 3.82165 17.8451C3.50909 17.5325 3.3335 17.1086 3.3335 16.6666V4.99992C3.3335 4.55789 3.50909 4.13397 3.82165 3.82141C4.13421 3.50885 4.55814 3.33325 5.00016 3.33325H6.66683" stroke="#95989B" stroke-width="1.5" stroke-linecap="round" stroke-linejoin="round"/>
<path d="M12.4998 1.66675H7.49984C7.0396 1.66675 6.6665 2.03984 6.6665 2.50008V4.16675C6.6665 4.62699 7.0396 5.00008 7.49984 5.00008H12.4998C12.9601 5.00008 13.3332 4.62699 13.3332 4.16675V2.50008C13.3332 2.03984 12.9601 1.66675 12.4998 1.66675Z" stroke="#95989B" stroke-width="1.5" stroke-linecap="round" stroke-linejoin="round"/>
<path d="M5.8335 8.75H9.16683" stroke="#95989B" stroke-linecap="round"/>
<path d="M5.8335 11.6667H13.3335" stroke="#95989B" stroke-linecap="round"/>
<path d="M5.8335 14.5833H13.3335" stroke="#95989B" stroke-linecap="round"/>
</svg>
