<svg width="16" height="18" viewBox="0 0 16 18" fill="none" xmlns="http://www.w3.org/2000/svg">
<g id="Group 8">
<path id="Rectangle 5" d="M1.33325 10.5C1.33325 8.61438 1.33325 7.67157 1.91904 7.08579C2.50482 6.5 3.44763 6.5 5.33325 6.5H10.6666C12.5522 6.5 13.495 6.5 14.0808 7.08579C14.6666 7.67157 14.6666 8.61438 14.6666 10.5V10.5C14.6666 13.3284 14.6666 14.7426 13.7879 15.6213C12.9092 16.5 11.495 16.5 8.66658 16.5H7.33325C4.50482 16.5 3.09061 16.5 2.21193 15.6213C1.33325 14.7426 1.33325 13.3284 1.33325 10.5V10.5Z" stroke="#FF7A69" stroke-width="1.4"/>
<path id="Vector 5" d="M11.3332 5.66667V4.83333C11.3332 2.99239 9.84079 1.5 7.99984 1.5V1.5C6.15889 1.5 4.6665 2.99239 4.6665 4.83333V5.66667" stroke="#FF7A69" stroke-width="1.4" stroke-linecap="round"/>
<circle id="Ellipse 6" cx="7.83325" cy="11.333" r="1.5" fill="#FF7A69"/>
</g>
</svg>
