<svg width="211" height="126" viewBox="0 0 211 126" fill="none" xmlns="http://www.w3.org/2000/svg">
<g clip-path="url(#clip0_1733_44842)">
<path d="M161.547 124.575C158.845 122.295 157.204 118.694 157.635 115.187C158.065 111.681 160.73 108.458 164.187 107.713C167.645 106.969 171.585 109.03 172.636 112.403C173.213 105.9 173.879 99.1239 177.341 93.5857C180.476 88.571 185.904 84.9827 191.788 84.3408C197.672 83.6989 203.867 86.1234 207.536 90.7619C211.206 95.4004 212.104 102.144 209.534 107.469C207.641 111.392 204.153 114.312 200.498 116.687C188.689 124.297 174.526 127.392 160.614 125.402L161.547 124.575Z" fill="#F2F2F2"/>
<path d="M201.718 86.2577C196.863 90.2073 192.409 94.6247 188.421 99.4459C182.179 106.965 177.129 115.396 173.444 124.444C173.175 125.104 174.248 125.391 174.515 124.739C180.542 110.034 190.165 97.0727 202.503 87.0414C203.057 86.5908 202.268 85.8108 201.718 86.2577Z" fill="white"/>
<path d="M67.9243 123.956C71.6346 120.824 73.8883 115.877 73.2973 111.061C72.7063 106.246 69.0456 101.818 64.2972 100.796C59.5487 99.7731 54.1358 102.604 52.6936 107.237C51.8998 98.3047 50.9852 88.9981 46.2306 81.3913C41.9254 74.5036 34.4687 69.5752 26.3874 68.6935C18.3061 67.8118 9.79749 71.1419 4.75746 77.5129C-0.282569 83.8839 -1.5166 93.1459 2.01331 100.46C4.61366 105.849 9.40444 109.859 14.424 113.121C30.438 123.529 50.3035 127.87 69.2057 125.091" fill="#F2F2F2"/>
<path d="M12.749 71.3266C19.4171 76.7515 25.5344 82.8187 31.0124 89.4407C36.4912 96.0558 41.3147 103.186 45.4152 110.732C47.7072 114.964 49.7661 119.319 51.5828 123.776C51.9532 124.682 50.4793 125.077 50.113 124.18C46.8952 116.323 42.9141 108.799 38.2269 101.718C33.5625 94.6618 28.2238 88.0743 22.2858 82.048C18.9273 78.6412 15.3837 75.4214 11.6712 72.4031C10.9103 71.7842 11.9944 70.7128 12.749 71.3266Z" fill="white"/>
<path d="M151.459 125.724H62.936V35.0041C62.936 15.7028 78.6573 0 97.9814 0H116.414C135.738 0 151.459 15.7028 151.459 35.0041V125.724Z" fill="#F2F2F2"/>
<path d="M133.027 125.724H62.9362V35.0042C62.9168 27.6083 65.2615 20.3994 69.6289 14.427C69.7899 14.2078 69.9505 13.9915 70.1161 13.7775C72.2286 11.0101 74.7425 8.57294 77.5749 6.54639C77.7348 6.43012 77.8955 6.31586 78.0585 6.2016C80.4285 4.56341 82.9923 3.22422 85.6914 2.21452C85.8517 2.15384 86.0149 2.09304 86.1781 2.03473C88.6192 1.16461 91.1496 0.568581 93.7227 0.25765C93.8823 0.235885 94.046 0.218853 94.2098 0.201821C96.7173 -0.0659716 99.2463 -0.0659716 101.754 0.201821C101.917 0.218853 102.081 0.235883 102.242 0.257883C104.815 0.568834 107.345 1.16479 109.785 2.03474C109.948 2.09305 110.111 2.15385 110.272 2.21465C112.938 3.21161 115.472 4.53082 117.816 6.14282C117.979 6.2546 118.142 6.36886 118.303 6.48312C119.891 7.61506 121.382 8.87611 122.762 10.2534C123.868 11.3581 124.899 12.5357 125.848 13.7782C126.013 13.9915 126.173 14.2078 126.334 14.4266C130.701 20.3991 133.046 27.6082 133.027 35.0042V125.724Z" fill="#D5D6D7"/>
<path d="M127.328 85.1485C129.471 85.1485 131.208 83.4132 131.208 81.2726C131.208 79.132 129.471 77.3967 127.328 77.3967C125.185 77.3967 123.447 79.132 123.447 81.2726C123.447 83.4132 125.185 85.1485 127.328 85.1485Z" fill="#FFCE41"/>
<path d="M144.207 123.007H141.234L139.819 111.552L144.208 111.552L144.207 123.007Z" fill="#FFB8B8"/>
<path d="M139.11 122.158H144.844V125.764H135.5C135.5 125.291 135.593 124.822 135.774 124.384C135.956 123.947 136.222 123.549 136.557 123.214C136.892 122.88 137.29 122.614 137.728 122.433C138.166 122.251 138.636 122.158 139.11 122.158Z" fill="#2C3138"/>
<path d="M159.002 123.007H156.028L154.614 111.552L159.002 111.552L159.002 123.007Z" fill="#FFB8B8"/>
<path d="M153.904 122.158H159.639V125.764H150.294C150.294 125.291 150.387 124.822 150.569 124.384C150.75 123.947 151.016 123.549 151.351 123.214C151.687 122.88 152.085 122.614 152.523 122.433C152.961 122.251 153.43 122.158 153.904 122.158Z" fill="#2C3138"/>
<path d="M129.291 82.0405C129.078 81.7257 128.935 81.3679 128.875 80.9923C128.814 80.6167 128.837 80.2324 128.941 79.8665C129.046 79.5006 129.229 79.1619 129.479 78.8745C129.728 78.587 130.038 78.3577 130.385 78.2026L140.493 50.377L145.467 53.088L133.926 79.6792C134.148 80.2801 134.142 80.9415 133.908 81.538C133.674 82.1346 133.23 82.6248 132.659 82.9159C132.087 83.2069 131.429 83.2786 130.809 83.1172C130.188 82.9559 129.648 82.5728 129.291 82.0405Z" fill="#FFB8B8"/>
<path d="M157.483 87.2689C157.152 87.0797 156.867 86.8204 156.648 86.5093C156.429 86.1982 156.281 85.8429 156.214 85.4684C156.147 85.0938 156.163 84.7092 156.261 84.3416C156.359 83.9739 156.537 83.6323 156.781 83.3406L153.65 53.9058L159.31 54.164L160.611 83.1171C161.075 83.5599 161.359 84.1571 161.411 84.7955C161.463 85.4339 161.279 86.0692 160.893 86.581C160.508 87.0927 159.948 87.4454 159.319 87.5722C158.69 87.699 158.037 87.5911 157.483 87.2689Z" fill="#FFB8B8"/>
<path d="M148.453 45.2227C151.743 45.2227 154.41 42.5589 154.41 39.273C154.41 35.987 151.743 33.3232 148.453 33.3232C145.163 33.3232 142.497 35.987 142.497 39.273C142.497 42.5589 145.163 45.2227 148.453 45.2227Z" fill="#FFB8B8"/>
<path d="M157.445 80.5746H139.486L139.508 80.435C139.54 80.2264 142.709 59.4958 140.372 52.7137C140.137 52.0472 140.158 51.3176 140.43 50.6654C140.701 50.0132 141.205 49.4845 141.844 49.1809C145.184 47.6099 151.595 45.6754 157.007 50.3701C157.803 51.0724 158.425 51.95 158.823 52.9336C159.221 53.9173 159.385 54.98 159.301 56.0377L157.445 80.5746Z" fill="#FFCE41"/>
<path d="M142.935 62.5593L134.85 60.921L138.64 51.9508C138.867 51.082 139.429 50.3385 140.204 49.8834C140.979 49.4283 141.903 49.2987 142.773 49.5232C143.644 49.7476 144.389 50.3077 144.847 51.0806C145.304 51.8534 145.436 52.776 145.214 53.6459L142.935 62.5593Z" fill="#FFCE41"/>
<path d="M153.29 65.6014L152.804 54.4724C152.436 52.3804 153.635 50.4027 155.479 50.0794C157.323 49.7573 159.124 51.2083 159.495 53.3158L161.322 63.7147L153.29 65.6014Z" fill="#FFCE41"/>
<path d="M156.847 79.2422C159.737 90.2344 160.052 104.21 159.272 119.455L155.392 118.97L148.358 89.9009L144.478 119.455L140.113 119.212C138.808 103.217 137.538 89.4854 139.627 80.4534L156.847 79.2422Z" fill="#2C3138"/>
<path d="M152.378 43.8712C151.267 45.0535 149.203 44.4188 149.059 42.8036C149.047 42.6782 149.048 42.552 149.061 42.4267C149.136 41.7112 149.55 41.0617 149.45 40.3062C149.428 40.1182 149.358 39.939 149.247 39.7857C148.361 38.6013 146.282 40.3154 145.447 39.2432C144.934 38.5858 145.537 37.5506 145.143 36.8158C144.624 35.846 143.087 36.3244 142.123 35.7933C141.05 35.2023 141.115 33.5585 141.821 32.5587C142.682 31.3393 144.191 30.6887 145.682 30.5949C147.173 30.5011 148.654 30.9037 150.046 31.4455C151.628 32.0611 153.196 32.9119 154.169 34.301C155.353 35.9902 155.467 38.2612 154.875 40.2364C154.515 41.4379 153.286 42.9057 152.378 43.8712Z" fill="#2F2E41"/>
<path d="M203.719 125.88H24.662C24.5855 125.88 24.5123 125.849 24.4583 125.795C24.4043 125.741 24.374 125.668 24.374 125.592C24.374 125.515 24.4043 125.442 24.4583 125.388C24.5123 125.334 24.5855 125.303 24.662 125.303H203.719C203.796 125.303 203.869 125.334 203.923 125.388C203.977 125.442 204.007 125.515 204.007 125.592C204.007 125.668 203.977 125.741 203.923 125.795C203.869 125.849 203.796 125.88 203.719 125.88Z" fill="#95989B"/>
<path d="M113.746 99.4407H82.2171C81.8018 99.4429 81.4027 99.2806 81.1071 98.9892C80.8116 98.6979 80.6438 98.3014 80.6406 97.8867V27.5951C80.6438 27.1804 80.8116 26.7838 81.1071 26.4925C81.4027 26.2012 81.8018 26.0388 82.2171 26.041H113.746C114.161 26.0388 114.56 26.2012 114.856 26.4925C115.151 26.7838 115.319 27.1804 115.322 27.5951V97.8867C115.319 98.3014 115.151 98.6979 114.856 98.9892C114.56 99.2806 114.161 99.4429 113.746 99.4407Z" fill="white"/>
<path d="M115.322 48.7852H80.6406V49.2696H115.322V48.7852Z" fill="#CCCCCC"/>
<path d="M115.444 76.4277H80.7622V76.9122H115.444V76.4277Z" fill="#CCCCCC"/>
<path d="M92.039 26.041H91.5547V99.6829H92.039V26.041Z" fill="#CCCCCC"/>
<path d="M104.165 26.041H103.681V99.6829H104.165V26.041Z" fill="#CCCCCC"/>
</g>
<defs>
<clipPath id="clip0_1733_44842">
<rect width="211" height="126" fill="white"/>
</clipPath>
</defs>
</svg>
