<svg width="20" height="20" viewBox="0 0 20 20" fill="none" xmlns="http://www.w3.org/2000/svg">
<g id="phone">
<path id="Vector" d="M16.9995 13.2304V15.4885C17.0004 15.6981 16.9574 15.9056 16.8732 16.0977C16.7891 16.2898 16.6657 16.4622 16.5109 16.6039C16.3561 16.7456 16.1734 16.8535 15.9744 16.9207C15.7754 16.9878 15.5646 17.0128 15.3554 16.9939C13.0346 16.7422 10.8053 15.9508 8.84668 14.6831C7.02441 13.5274 5.47945 11.9855 4.3215 10.1669C3.0469 8.20324 2.25368 5.96756 2.00612 3.64096C1.98727 3.43282 2.01206 3.22303 2.0789 3.02497C2.14574 2.82691 2.25317 2.6449 2.39436 2.49055C2.53554 2.33619 2.70738 2.21287 2.89893 2.12843C3.09049 2.04398 3.29756 2.00027 3.50697 2.00007H5.76956C6.13558 1.99648 6.49041 2.12583 6.76793 2.36403C7.04546 2.60222 7.22672 2.93301 7.27795 3.29472C7.37345 4.01736 7.55055 4.72691 7.80589 5.40981C7.90736 5.67922 7.92932 5.97202 7.86917 6.2535C7.80902 6.53498 7.66928 6.79336 7.4665 6.99801L6.50867 7.95394C7.58231 9.83837 9.14568 11.3986 11.0338 12.4702L11.9917 11.5142C12.1967 11.3118 12.4556 11.1724 12.7377 11.1123C13.0197 11.0523 13.3131 11.0742 13.583 11.1755C14.2673 11.4303 14.9782 11.6071 15.7023 11.7024C16.0687 11.754 16.4033 11.9381 16.6424 12.2199C16.8816 12.5016 17.0087 12.8612 16.9995 13.2304Z" stroke="#FF7A69" stroke-width="1.4" stroke-linecap="round" stroke-linejoin="round"/>
</g>
</svg>
