<svg width="60" height="60" viewBox="0 0 60 60" fill="none" xmlns="http://www.w3.org/2000/svg">
<path fill-rule="evenodd" clip-rule="evenodd" d="M44.121 7.46786L19.4314 3.58808C16.2108 3.08198 14.6005 2.82894 13.5503 3.72706C12.5 4.62518 12.5 6.25523 12.5 9.51534V27.4999H27.2984L20.5478 19.0616L24.4522 15.9382L34.4522 28.4382L35.7016 29.9999L34.4522 31.5616L24.4522 44.0616L20.5478 40.9382L27.2984 32.4999H12.5V50.4824C12.5 53.7425 12.5 55.3725 13.5503 56.2706C14.6005 57.1688 16.2108 56.9157 19.4314 56.4096H19.4314L44.121 52.5298C45.7337 52.2764 46.5401 52.1497 47.02 51.5884C47.5 51.0271 47.5 50.2109 47.5 48.5783V11.4194C47.5 9.78684 47.5 8.97058 47.02 8.40929C46.5401 7.848 45.7337 7.72129 44.121 7.46786Z" fill="#4CAE4C"/>
</svg>
