<svg width="60" height="60" viewBox="0 0 60 60" fill="none" xmlns="http://www.w3.org/2000/svg">
<path d="M5 30L3.04783 28.4383L1.79844 30L3.04783 31.5617L5 30ZM27.5 32.5C28.8807 32.5 30 31.3807 30 30C30 28.6193 28.8807 27.5 27.5 27.5V32.5ZM13.0478 15.9383L3.04783 28.4383L6.95217 31.5617L16.9522 19.0617L13.0478 15.9383ZM3.04783 31.5617L13.0478 44.0617L16.9522 40.9383L6.95217 28.4383L3.04783 31.5617ZM5 32.5H27.5V27.5H5V32.5Z" fill="#C9C9C9"/>
<path d="M25 20.3298V13.3885C25 11.7702 25 10.961 25.474 10.4015C25.9479 9.84201 26.7461 9.70899 28.3424 9.44293L48.0136 6.1644C51.2567 5.62388 52.8782 5.35363 53.9391 6.25232C55 7.15102 55 8.79493 55 12.0828V47.9172C55 51.2051 55 52.849 53.9391 53.7477C52.8782 54.6464 51.2567 54.3761 48.0136 53.8356L28.3424 50.5571C26.7461 50.291 25.9479 50.158 25.474 49.5985C25 49.039 25 48.2298 25 46.6115V40.1649" stroke="#C9C9C9" stroke-width="5"/>
</svg>
