<svg width="50" height="50" viewBox="0 0 50 50" fill="none" xmlns="http://www.w3.org/2000/svg">
<path d="M22 31.3479C30.6773 31.3479 38 32.7579 38 38.1979C38 43.64 30.6292 45 22 45C13.3247 45 6 43.59 6 38.1499C6 32.7079 13.3708 31.3479 22 31.3479ZM22 5C27.8782 5 32.588 9.70805 32.588 15.5821C32.588 21.4562 27.8782 26.1662 22 26.1662C16.1238 26.1662 11.412 21.4562 11.412 15.5821C11.412 9.70805 16.1238 5 22 5Z" fill="#244065"/>
<path d="M26.7298 32.3302C22.59 37.3851 22.3944 37.3899 17.3449 32.3448C17.2189 32.2189 17.3047 32 17.4828 32H26.578C26.7467 32 26.8367 32.1997 26.7298 32.3302Z" fill="#177191"/>
<circle cx="38" cy="32" r="8" fill="#91D5EC"/>
<path d="M35 32H41" stroke="white" stroke-width="1.2" stroke-linecap="round"/>
<path d="M38 35V29" stroke="white" stroke-width="1.2" stroke-linecap="round"/>
</svg>
