<svg width="50" height="50" viewBox="0 0 50 50" fill="none" xmlns="http://www.w3.org/2000/svg">
<path d="M8.0333 7.94171H38.3333C38.4748 7.94171 38.6104 7.9979 38.7104 8.09792C38.8104 8.19794 38.8666 8.3336 38.8666 8.47504V43.9417C38.8666 44.0854 38.8096 44.2231 38.708 44.3247C38.6064 44.4263 38.4686 44.4834 38.325 44.4834H8.0333C7.88965 44.4834 7.75187 44.4263 7.65029 44.3247C7.54871 44.2231 7.49164 44.0854 7.49164 43.9417V8.48338C7.49164 8.33972 7.54871 8.20194 7.65029 8.10036C7.75187 7.99878 7.88965 7.94171 8.0333 7.94171Z" fill="#244065"/>
<path d="M34.975 10.725H11.8167C11.5175 10.725 11.275 10.9675 11.275 11.2666V39.525C11.275 39.8241 11.5175 40.0666 11.8167 40.0666H34.975C35.2742 40.0666 35.5167 39.8241 35.5167 39.525V11.2666C35.5167 10.9675 35.2742 10.725 34.975 10.725Z" fill="#D3EEF7"/>
<path d="M32.2251 6.29166H27.0334C26.9104 5.35987 26.4529 4.50456 25.7462 3.88499C25.0394 3.26542 24.1316 2.92383 23.1917 2.92383C22.2519 2.92383 21.344 3.26542 20.6373 3.88499C19.9305 4.50456 19.4731 5.35987 19.3501 6.29166H14.1667C14.0231 6.29166 13.8853 6.34873 13.7837 6.45031C13.6821 6.55189 13.6251 6.68967 13.6251 6.83332V12.5667C13.6251 12.7103 13.6821 12.8481 13.7837 12.9497C13.8853 13.0513 14.0231 13.1083 14.1667 13.1083H32.2251C32.3687 13.1083 32.5065 13.0513 32.6081 12.9497C32.7097 12.8481 32.7667 12.7103 32.7667 12.5667V6.83332C32.7667 6.68967 32.7097 6.55189 32.6081 6.45031C32.5065 6.34873 32.3687 6.29166 32.2251 6.29166Z" fill="#177191"/>
<path d="M17.2083 16.5583C17.2083 16.8451 17.1232 17.1255 16.9639 17.3639C16.8046 17.6024 16.5781 17.7882 16.3132 17.898C16.0482 18.0077 15.7567 18.0364 15.4754 17.9805C15.1941 17.9245 14.9358 17.7864 14.733 17.5836C14.5302 17.3809 14.3921 17.1225 14.3362 16.8412C14.2802 16.5599 14.3089 16.2684 14.4187 16.0034C14.5284 15.7385 14.7143 15.512 14.9527 15.3527C15.1912 15.1934 15.4715 15.1083 15.7583 15.1083C16.1429 15.1083 16.5117 15.2611 16.7836 15.533C17.0555 15.805 17.2083 16.1738 17.2083 16.5583Z" fill="#177191"/>
<path d="M31.4083 17.1H19.7417C19.598 17.1 19.4602 17.0429 19.3587 16.9413C19.2571 16.8398 19.2 16.702 19.2 16.5583C19.2 16.4147 19.2571 16.2769 19.3587 16.1753C19.4602 16.0737 19.598 16.0167 19.7417 16.0167H31.4083C31.552 16.0167 31.6898 16.0737 31.7914 16.1753C31.8929 16.2769 31.95 16.4147 31.95 16.5583C31.95 16.702 31.8929 16.8398 31.7914 16.9413C31.6898 17.0429 31.552 17.1 31.4083 17.1Z" fill="#244065"/>
<path d="M17.2083 21.2417C17.2099 21.5288 17.1263 21.8099 16.968 22.0495C16.8096 22.289 16.5838 22.4762 16.319 22.5872C16.0542 22.6982 15.7623 22.7281 15.4805 22.6731C15.1987 22.6181 14.9396 22.4807 14.7359 22.2782C14.5323 22.0758 14.3934 21.8174 14.3368 21.5359C14.2801 21.2545 14.3084 20.9625 14.4179 20.697C14.5274 20.4316 14.7132 20.2046 14.9518 20.0449C15.1905 19.8852 15.4711 19.8 15.7583 19.8C16.1414 19.8 16.5089 19.9516 16.7806 20.2217C17.0523 20.4919 17.2061 20.8585 17.2083 21.2417Z" fill="#177191"/>
<path d="M31.4083 21.7833H19.7416C19.6654 21.7928 19.588 21.786 19.5147 21.7634C19.4413 21.7407 19.3736 21.7027 19.316 21.6519C19.2584 21.601 19.2124 21.5385 19.1808 21.4685C19.1492 21.3985 19.1329 21.3226 19.1329 21.2458C19.1329 21.169 19.1492 21.0931 19.1808 21.0231C19.2124 20.9531 19.2584 20.8906 19.316 20.8398C19.3736 20.789 19.4413 20.751 19.5147 20.7283C19.588 20.7056 19.6654 20.6988 19.7416 20.7083H31.4083C31.5393 20.7247 31.6598 20.7883 31.7472 20.8873C31.8346 20.9863 31.8829 21.1138 31.8829 21.2458C31.8829 21.3779 31.8346 21.5054 31.7472 21.6044C31.6598 21.7033 31.5393 21.767 31.4083 21.7833Z" fill="#244065"/>
<path d="M17.2083 25.9333C17.2083 26.2201 17.1232 26.5005 16.9639 26.7389C16.8046 26.9774 16.5781 27.1632 16.3132 27.273C16.0482 27.3827 15.7567 27.4114 15.4754 27.3555C15.1941 27.2995 14.9358 27.1614 14.733 26.9586C14.5302 26.7559 14.3921 26.4975 14.3362 26.2162C14.2802 25.9349 14.3089 25.6434 14.4187 25.3784C14.5284 25.1135 14.7143 24.887 14.9527 24.7277C15.1912 24.5684 15.4715 24.4833 15.7583 24.4833C16.1429 24.4833 16.5117 24.6361 16.7836 24.908C17.0555 25.18 17.2083 25.5488 17.2083 25.9333Z" fill="#177191"/>
<path d="M31.4083 26.4667H19.7417C19.6709 26.4678 19.6007 26.4548 19.535 26.4285C19.4693 26.4022 19.4096 26.3631 19.3592 26.3134C19.3087 26.2638 19.2687 26.2046 19.2414 26.1394C19.2141 26.0741 19.2 26.0041 19.2 25.9333C19.2 25.7897 19.2571 25.6519 19.3587 25.5503C19.4602 25.4487 19.598 25.3917 19.7417 25.3917H31.4083C31.5506 25.3939 31.6862 25.4519 31.786 25.5532C31.8858 25.6546 31.9417 25.7911 31.9417 25.9333C31.9417 26.0748 31.8855 26.2104 31.7855 26.3105C31.6854 26.4105 31.5498 26.4667 31.4083 26.4667Z" fill="#244065"/>
<path d="M17.2083 30.6167C17.2083 30.9035 17.1232 31.1838 16.9639 31.4223C16.8046 31.6607 16.5781 31.8466 16.3132 31.9563C16.0482 32.0661 15.7567 32.0948 15.4754 32.0388C15.1941 31.9829 14.9358 31.8448 14.733 31.642C14.5302 31.4392 14.3921 31.1808 14.3362 30.8996C14.2802 30.6183 14.3089 30.3267 14.4187 30.0618C14.5284 29.7968 14.7143 29.5704 14.9527 29.4111C15.1912 29.2517 15.4715 29.1667 15.7583 29.1667C15.9487 29.1667 16.1373 29.2042 16.3132 29.2771C16.4891 29.3499 16.6489 29.4567 16.7836 29.5914C16.9182 29.726 17.025 29.8859 17.0979 30.0618C17.1708 30.2377 17.2083 30.4263 17.2083 30.6167Z" fill="#177191"/>
<path d="M31.4083 31.1583H19.7416C19.6654 31.1678 19.588 31.161 19.5147 31.1384C19.4413 31.1157 19.3736 31.0777 19.316 31.0269C19.2584 30.976 19.2124 30.9135 19.1808 30.8435C19.1492 30.7735 19.1329 30.6976 19.1329 30.6208C19.1329 30.544 19.1492 30.4681 19.1808 30.3981C19.2124 30.3281 19.2584 30.2656 19.316 30.2148C19.3736 30.164 19.4413 30.126 19.5147 30.1033C19.588 30.0806 19.6654 30.0738 19.7416 30.0833H31.4083C31.5393 30.0997 31.6598 30.1633 31.7472 30.2623C31.8346 30.3613 31.8829 30.4888 31.8829 30.6208C31.8829 30.7529 31.8346 30.8804 31.7472 30.9794C31.6598 31.0783 31.5393 31.142 31.4083 31.1583Z" fill="#244065"/>
<circle cx="39.1667" cy="40" r="6.66667" fill="#91D5EC"/>
<path d="M36.6667 40H41.6667" stroke="white" stroke-width="1.2" stroke-linecap="round"/>
<path d="M39.1667 42.5V37.5" stroke="white" stroke-width="1.2" stroke-linecap="round"/>
</svg>
