<svg width="50" height="50" viewBox="0 0 50 50" fill="none" xmlns="http://www.w3.org/2000/svg">
<path d="M13.8526 40.8157C15.5113 40.8157 16.8703 42.2036 16.8703 43.9181C16.8703 45.6121 15.5113 47 13.8526 47C12.1739 47 10.815 45.6121 10.815 43.9181C10.815 42.2036 12.1739 40.8157 13.8526 40.8157ZM36.3351 40.8157C37.9938 40.8157 39.3528 42.2036 39.3528 43.9181C39.3528 45.6121 37.9938 47 36.3351 47C34.6564 47 33.2975 45.6121 33.2975 43.9181C33.2975 42.2036 34.6564 40.8157 36.3351 40.8157ZM4.76011 7.01748L9.5264 7.7502C10.2059 7.8747 10.7055 8.44415 10.7654 9.13809L11.1451 13.71C11.2051 14.3651 11.7247 14.855 12.3642 14.855H39.3532C40.5722 14.855 41.3716 15.2836 42.171 16.2225C42.9703 17.1613 43.1102 18.5084 42.9304 19.731L41.0318 33.1201C40.6721 35.6938 38.5138 37.5899 35.9758 37.5899H14.1728C11.5148 37.5899 9.31656 35.5101 9.09673 32.8159L7.25817 10.5668L4.24052 10.0361C3.44114 9.89327 2.88158 9.09727 3.02147 8.28087C3.16136 7.44609 3.94075 6.89297 4.76011 7.01748ZM32.7783 22.4047H27.2426C26.4032 22.4047 25.7438 23.0782 25.7438 23.9355C25.7438 24.7723 26.4032 25.4662 27.2426 25.4662H32.7783C33.6176 25.4662 34.2771 24.7723 34.2771 23.9355C34.2771 23.0782 33.6176 22.4047 32.7783 22.4047Z" fill="#244065"/>
<path d="M16.8703 43.9181C16.8703 42.2036 15.5113 40.8157 13.8526 40.8157C12.1739 40.8157 10.815 42.2036 10.815 43.9181C10.815 45.6121 12.1739 47 13.8526 47C15.5113 47 16.8703 45.6121 16.8703 43.9181Z" fill="#177191"/>
<path d="M39.3528 43.9181C39.3528 42.2036 37.9938 40.8157 36.3351 40.8157C34.6564 40.8157 33.2975 42.2036 33.2975 43.9181C33.2975 45.6121 34.6564 47 36.3351 47C37.9938 47 39.3528 45.6121 39.3528 43.9181Z" fill="#177191"/>
<path d="M9.5264 7.7502L4.76011 7.01748C3.94075 6.89297 3.16136 7.44609 3.02147 8.28087C2.88158 9.09727 3.44114 9.89327 4.24052 10.0361L7.25817 10.5668L9.09673 32.8159C9.31656 35.5101 11.5148 37.5899 14.1728 37.5899L19 37.5V33V26C19.1799 24.7774 19 21.5 19 20V14.855H12.3642C11.7247 14.855 11.2051 14.3651 11.1451 13.71L10.7654 9.13809C10.7055 8.44415 10.2059 7.8747 9.5264 7.7502Z" fill="#177191"/>
<circle cx="39" cy="11" r="8" fill="#91D5EC"/>
<path d="M36 11H42" stroke="white" stroke-width="1.2" stroke-linecap="round"/>
<path d="M39 14V8" stroke="white" stroke-width="1.2" stroke-linecap="round"/>
</svg>
