<svg width="50" height="50" viewBox="0 0 50 50" fill="none" xmlns="http://www.w3.org/2000/svg">
<path d="M43 12.4143L24.775 5.86431C24.6591 5.82298 24.5325 5.82298 24.4167 5.86431L6.19168 12.4143C6.08763 12.453 5.99771 12.5222 5.93376 12.613C5.8698 12.7037 5.8348 12.8116 5.83334 12.9226C5.83362 13.0339 5.86817 13.1424 5.93228 13.2334C5.9964 13.3243 6.08697 13.3933 6.19168 13.431L24.4167 19.981C24.4744 19.9929 24.5339 19.9929 24.5917 19.981C24.6521 19.9936 24.7145 19.9936 24.775 19.981L43 13.431C43.1041 13.3923 43.194 13.323 43.2579 13.2323C43.3219 13.1416 43.3569 13.0336 43.3583 12.9226C43.3558 12.8119 43.3203 12.7045 43.2565 12.614C43.1927 12.5234 43.1034 12.4539 43 12.4143Z" fill="#177191"/>
<path d="M24.775 18.9726L6.55834 12.4143C6.47701 12.3854 6.38995 12.3764 6.30443 12.388C6.21891 12.3996 6.13739 12.4315 6.06668 12.481C5.99569 12.5309 5.93753 12.597 5.89698 12.6738C5.85642 12.7506 5.83462 12.8358 5.83334 12.9226V36.281C5.83389 36.3867 5.86587 36.49 5.92523 36.5775C5.98458 36.6651 6.06862 36.733 6.16668 36.7726L24.3833 44.481C24.4519 44.4967 24.5231 44.4967 24.5917 44.481C24.6977 44.4831 24.802 44.4542 24.8917 44.3976C24.9653 44.3478 25.0258 44.2808 25.0679 44.2024C25.11 44.124 25.1325 44.0366 25.1333 43.9476V19.481C25.1343 19.3694 25.1002 19.2604 25.0359 19.1692C24.9717 19.078 24.8804 19.0092 24.775 18.9726Z" fill="#177191"/>
<path d="M43.125 12.481C43.0542 12.4315 42.9727 12.3996 42.8872 12.388C42.8017 12.3764 42.7146 12.3854 42.6333 12.4143L24.4166 18.9726C24.3112 19.0092 24.22 19.078 24.1557 19.1692C24.0914 19.2604 24.0573 19.3694 24.0583 19.481V43.9893C24.0572 44.0597 24.0702 44.1295 24.0966 44.1947C24.123 44.2599 24.1622 44.3192 24.212 44.3689C24.2617 44.4187 24.321 44.4579 24.3862 44.4843C24.4514 44.5107 24.5213 44.5238 24.5916 44.5226C24.6662 44.5345 24.7421 44.5345 24.8166 44.5226L43.0333 36.281C43.1304 36.2409 43.2134 36.1727 43.2713 36.085C43.3292 35.9974 43.3595 35.8944 43.3583 35.7893V12.9476C43.3611 12.8566 43.3412 12.7663 43.3005 12.6849C43.2598 12.6034 43.1994 12.5334 43.125 12.481Z" fill="#244065"/>
<path d="M30.025 7.75598L12.125 14.9643V23.906C12.1254 24.029 12.163 24.1489 12.2329 24.2501C12.3028 24.3513 12.4018 24.4289 12.5167 24.4727L17.575 26.3976C17.6467 26.4103 17.72 26.4103 17.7917 26.3976C17.9136 26.3952 18.0323 26.3576 18.1334 26.2893C18.2152 26.2321 18.2821 26.156 18.3285 26.0676C18.3749 25.9791 18.3994 25.8809 18.4 25.781V17.281L37.1584 10.3143L30.025 7.75598Z" fill="#91D5EC"/>
<path d="M17.8582 17.056L12.6332 15.1893L12.1249 15.006C12.1123 15.0664 12.1123 15.1288 12.1249 15.1893V23.906C12.1253 24.029 12.1629 24.1489 12.2328 24.2501C12.3027 24.3513 12.4017 24.4289 12.5166 24.4726L17.5749 26.3976C17.6466 26.4103 17.7199 26.4103 17.7916 26.3976C17.9135 26.3952 18.0322 26.3576 18.1332 26.2893C18.2151 26.2321 18.282 26.156 18.3284 26.0676C18.3748 25.9791 18.3993 25.8809 18.3999 25.781V17.2476L17.8582 17.056Z" fill="#91D5EC"/>
<circle cx="34.1667" cy="38.3334" r="6.66667" fill="#91D5EC"/>
<path d="M31.6667 38.3333H36.6667" stroke="white" stroke-width="1.2" stroke-linecap="round"/>
<path d="M34.1667 40.8333V35.8333" stroke="white" stroke-width="1.2" stroke-linecap="round"/>
</svg>
